<?xml version="1.0" encoding="iso-8859-1"?>
<!-- Generator: Adobe Illustrator 19.0.0, SVG Export Plug-In . SVG Version: 6.00 Build 0)  -->
<svg version="1.1" id="pass-transport-type" xmlns="http://www.w3.org/2000/svg" xmlns:xlink="http://www.w3.org/1999/xlink" x="0px" y="0px"
	 viewBox="0 0 511.994 511.994" style="enable-background:new 0 0 511.994 511.994;" xml:space="preserve">
<g transform="translate(-1)">
	<g>
		<g>
			<rect x="316.763" y="85.331" width="34.133" height="25.6"/>
			<rect x="239.963" y="85.331" width="25.6" height="25.6"/>
			<rect x="163.163" y="85.331" width="25.6" height="25.6"/>
			<path d="M225.355,356.764l-136.926,93.73l33.22,57.25c1.527,2.637,4.335,4.25,7.381,4.25h256c3.055,0,5.871-1.63,7.398-4.284
				l33.186-57.771l-138.931-93.278C267.766,347.591,245.895,347.591,225.355,356.764z"/>
			<path d="M356.838,272.806c-0.162-0.043-0.324-0.06-0.512-0.06c-4.181,0-15.607,10.146-20.198,28.254
				c-2.56,10.078-3.644,19.063-3.063,25.301c0.392,4.139,1.485,6.537,2.355,6.758c4.471,1.135,18.142-8.269,22.758-26.47
				c2.389-9.412,3.157-18.765,2.099-25.677C359.416,275.221,357.589,272.985,356.838,272.806z"/>
			<path d="M156.797,272.739c-0.205,0-0.401,0.017-0.572,0.068c-0.649,0.154-2.304,2.372-3.004,7.893
				c-0.862,6.818,0.043,16.265,2.492,25.89c4.668,18.432,17.732,27.563,21.922,26.462c0.973-0.239,2.261-2.534,2.799-6.98
				c0.759-6.349-0.188-15.258-2.679-25.071C173.147,282.825,161.243,272.739,156.797,272.739z"/>
			<path d="M485.504,311.339c-4.395-17.152-15.992-31.514-31.659-39.347l-25.6-13.491l16.41-103.569
				c0.393-2.466-0.316-4.975-1.937-6.878c-1.621-1.894-3.985-2.987-6.485-2.987h-34.133v-102.4c0-4.719-3.823-8.533-8.533-8.533
				h-93.867v-25.6c0-4.719-3.823-8.533-8.533-8.533h-68.267c-4.719,0-8.533,3.814-8.533,8.533v25.6h-93.867
				c-4.719,0-8.533,3.814-8.533,8.533v102.4H77.833c-2.483,0-4.847,1.084-6.468,2.961c-1.621,1.877-2.347,4.378-1.98,6.827
				l15.701,105.096l-23.279,12.621c-16.324,7.629-28.39,21.965-33.092,39.356c-4.71,17.382-1.519,35.857,8.363,50.091l42.47,73.182
				l137.95-93.585c0.179-0.102,0.367-0.196,0.555-0.273c25.276-11.426,52.378-11.392,76.305,0.077l140.075,93.167l42.138-73.37
				C486.648,346.667,489.899,328.482,485.504,311.339z M299.699,76.8c0-4.719,3.814-8.533,8.533-8.533h51.2
				c4.71,0,8.533,3.814,8.533,8.533v42.667c0,4.71-3.823,8.533-8.533,8.533h-51.2c-4.719,0-8.533-3.823-8.533-8.533V76.8z
				 M222.899,76.8c0-4.719,3.814-8.533,8.533-8.533h42.667c4.71,0,8.533,3.814,8.533,8.533v42.667c0,4.71-3.823,8.533-8.533,8.533
				h-42.667c-4.719,0-8.533-3.823-8.533-8.533V76.8z M146.099,76.8c0-4.719,3.814-8.533,8.533-8.533h42.667
				c4.71,0,8.533,3.814,8.533,8.533v42.667c0,4.71-3.823,8.533-8.533,8.533h-42.667c-4.719,0-8.533-3.823-8.533-8.533V76.8z
				 M197.376,328.124c-1.903,15.744-10.564,20.215-15.556,21.478c-1.579,0.401-3.2,0.597-4.83,0.597
				c-15.309,0-32.128-16.973-37.828-39.407c-2.978-11.793-4.011-23.236-2.867-32.239c2.074-16.452,10.752-21.035,15.744-22.298
				c15.906-4.053,35.746,14.882,42.266,40.542C197.342,308.779,198.409,319.616,197.376,328.124z M374.733,310.793
				c-5.632,22.153-23.117,39.407-38.656,39.407c-1.638,0-3.251-0.196-4.838-0.597c-5.026-1.271-13.679-5.786-15.164-21.717
				c-0.981-10.402,1.374-22.647,3.507-31.087c6.596-26.001,25.66-44.552,41.438-40.542c4.958,1.254,13.653,5.803,16.137,22.084
				C378.556,287.556,377.694,299.085,374.733,310.793z M412.297,250.103l-117.939-62.123c-23.919-11.477-51.021-11.503-76.86,0.188
				L101.043,251.29l-13.312-89.156h32.768h273.067h32.674L412.297,250.103z"/>
		</g>
	</g>
</g>
<g>
</g>
<g>
</g>
<g>
</g>
<g>
</g>
<g>
</g>
<g>
</g>
<g>
</g>
<g>
</g>
<g>
</g>
<g>
</g>
<g>
</g>
<g>
</g>
<g>
</g>
<g>
</g>
<g>
</g>
</svg>
